<svg width="32" height="32" viewBox="0 0 32 32" fill="none" xmlns="http://www.w3.org/2000/svg">
<g id="Icon / map-pin">
<g id="icon">
<path d="M16 22.666L17.3333 19.9993V13.1433C19.628 12.5473 21.3333 10.4767 21.3333 7.99935C21.3333 5.05802 18.9413 2.66602 16 2.66602C13.0586 2.66602 10.6666 5.05802 10.6666 7.99935C10.6666 10.4767 12.372 12.5473 14.6666 13.1433V19.9993L16 22.666ZM13.3333 7.99935C13.3333 6.52868 14.5293 5.33268 16 5.33268C17.4706 5.33268 18.6666 6.52868 18.6666 7.99935C18.6666 9.47002 17.4706 10.666 16 10.666C14.5293 10.666 13.3333 9.47002 13.3333 7.99935Z" fill="#006CBF"/>
<path d="M21.6893 14.0834L20.9786 16.654C24.4333 17.6087 26.6666 19.4447 26.6666 21.3327C26.6666 23.8554 22.2866 26.666 16 26.666C9.71329 26.666 5.33329 23.8554 5.33329 21.3327C5.33329 19.4447 7.56663 17.6087 11.0226 16.6527L10.312 14.082C5.59596 15.386 2.66663 18.1634 2.66663 21.3327C2.66663 25.818 8.52396 29.3327 16 29.3327C23.476 29.3327 29.3333 25.818 29.3333 21.3327C29.3333 18.1634 26.404 15.386 21.6893 14.0834Z" fill="#006CBF"/>
</g>
</g>
</svg>
