<svg width="20" height="20" viewBox="0 0 20 20" fill="none" xmlns="http://www.w3.org/2000/svg">
<path d="M14.8888 12.1688L14.8888 12.1688L14.6678 12.3898C14.6678 12.3898 14.6678 12.3898 14.6678 12.3898C14.6068 12.4508 14.5079 12.4508 14.4469 12.3898C14.4469 12.3898 14.4469 12.3898 14.4469 12.3898L10.2203 8.16316L9.99929 7.94218L9.77832 8.16315L5.55169 12.3898C5.49067 12.4508 5.39178 12.4508 5.33076 12.3898L5.10976 12.1688C5.04874 12.1078 5.04874 12.0089 5.10976 11.9478L9.88882 7.16878C9.94985 7.10776 10.0487 7.10776 10.1098 7.16878L14.8888 11.9478C14.8888 11.9478 14.8888 11.9478 14.8888 11.9478C14.9498 12.0089 14.9498 12.1078 14.8888 12.1688Z" stroke="black" stroke-width="0.625"/>
</svg>
