<svg width="48" height="48" viewBox="0 0 48 48" fill="none" xmlns="http://www.w3.org/2000/svg">
<path d="M38.098 9.90216C37.7454 8.53992 37.0356 7.29646 36.042 6.30016C33.022 3.28016 27.75 3.28016 24.73 6.30016C23.4783 7.55572 22.6781 9.1907 22.4545 10.9494C22.2309 12.7081 22.5964 14.4913 23.494 16.0202L16.066 23.4482C13.056 21.6682 8.88397 22.1502 6.34596 24.6842C4.84754 26.1855 4.00598 28.22 4.00598 30.3412C4.00598 32.4623 4.84754 34.4968 6.34596 35.9982C7.3413 36.9921 8.58419 37.7019 9.94596 38.0542C10.302 39.4162 11.006 40.6582 12.002 41.6542C12.7422 42.4005 13.6235 42.9922 14.5945 43.3949C15.5654 43.7977 16.6068 44.0034 17.658 44.0002C18.7089 44.0029 19.7499 43.7971 20.7208 43.3948C21.6916 42.9924 22.5731 42.4015 23.314 41.6562C24.5654 40.4009 25.3654 38.7661 25.5887 37.0077C25.8119 35.2492 25.446 33.4664 24.548 31.9382L31.976 24.5102C34.99 26.2922 39.162 25.8102 41.698 23.2722C43.1963 21.7712 44.0378 19.737 44.0378 17.6162C44.0378 15.4953 43.1963 13.4612 41.698 11.9602C40.7031 10.9652 39.4601 10.2546 38.098 9.90216ZM38.872 20.4442C37.36 21.9542 34.726 21.9562 33.214 20.4442L31.8 19.0302L19.074 31.7582L20.488 33.1722C21.2364 33.923 21.6566 34.94 21.6566 36.0002C21.6566 37.0603 21.2364 38.0773 20.488 38.8282C18.974 40.3422 16.34 40.3382 14.83 38.8282C14.1336 38.1293 13.7259 37.194 13.688 36.2082L13.594 34.4082L11.794 34.3142C10.8086 34.2744 9.8738 33.867 9.17396 33.1722C8.42494 32.4212 8.0043 31.4038 8.0043 30.3432C8.0043 29.2825 8.42494 28.2651 9.17396 27.5142C9.92796 26.7602 10.932 26.3442 12 26.3442C13.068 26.3442 14.072 26.7602 14.828 27.5142L16.242 28.9282L28.97 16.2022L27.556 14.7882C26.8069 14.0372 26.3863 13.0198 26.3863 11.9592C26.3863 10.8985 26.8069 9.88113 27.556 9.13016C29.068 7.62216 31.7 7.62216 33.212 9.13016C33.898 9.81616 34.304 10.7482 34.356 11.7542L34.452 13.5482L36.246 13.6442C37.252 13.6962 38.184 14.1022 38.87 14.7882C39.624 15.5442 40.04 16.5482 40.04 17.6162C40.04 18.6842 39.626 19.6882 38.872 20.4442Z" fill="black"/>
</svg>
