<svg width="24" height="24" viewBox="0 0 24 24" fill="none" xmlns="http://www.w3.org/2000/svg">
<path d="M4.50003 13.0002V12.5002H4.00003H3.00014C3.0001 12.5002 3.00007 12.5002 3.00003 12.5002C2.90119 12.5002 2.80458 12.4708 2.72241 12.4159C2.6402 12.361 2.57613 12.2829 2.5383 12.1915C2.50046 12.1002 2.49056 11.9997 2.50985 11.9027C2.52913 11.8057 2.57671 11.7167 2.64658 11.6468C2.6466 11.6467 2.64662 11.6467 2.64664 11.6467L11.6466 2.64675L11.6469 2.64645C11.6932 2.60003 11.7483 2.5632 11.8089 2.53807C11.8695 2.51294 11.9344 2.5 12 2.5C12.0656 2.5 12.1306 2.51294 12.1912 2.53807C12.2518 2.5632 12.3068 2.60003 12.3532 2.64645L12.3535 2.64675L21.3534 11.6467C21.3534 11.6467 21.3535 11.6467 21.3535 11.6468C21.4234 11.7167 21.4709 11.8057 21.4902 11.9027C21.5095 11.9997 21.4996 12.1002 21.4618 12.1915C21.4239 12.2829 21.3599 12.361 21.2777 12.4159C21.1955 12.4708 21.0989 12.5002 21 12.5002C21 12.5002 21 12.5002 20.9999 12.5002H20H19.5V13.0002V20.0002C19.5 20.8271 18.8269 21.5002 18 21.5002H6.00003C5.17317 21.5002 4.50003 20.8271 4.50003 20.0002V13.0002ZM9.50003 20.0002V20.5002H10H14H14.5V20.0002V15.0002V14.5002H14H10H9.50003V15.0002V20.0002ZM12.3536 4.06065L12 3.70709L11.6465 4.06065L5.64648 10.0606L5.50003 10.2071V10.4142V20.0002V20.5002H6.00003H8.00003H8.50003V20.0002V15.0002C8.50003 14.1733 9.17317 13.5002 10 13.5002H14C14.8269 13.5002 15.5 14.1733 15.5 15.0002V20.0002V20.5002H16H18.001H18.5011L18.501 20.0001L18.5 10.4141L18.5 10.2071L18.3536 10.0606L12.3536 4.06065Z" stroke="#444444"/>
</svg>
