<svg width="24" height="24" viewBox="0 0 24 24" fill="none" xmlns="http://www.w3.org/2000/svg">
<path d="M18.5 13.586V13.7931L18.6464 13.9396L20.3534 15.6466L20.3541 15.6472C20.4004 15.6934 20.4372 15.7482 20.4622 15.8087C20.4873 15.8691 20.5001 15.9339 20.5 15.9993V16V18C20.5 18.1326 20.4473 18.2598 20.3536 18.3536C20.2598 18.4473 20.1326 18.5 20 18.5H4C3.86739 18.5 3.74022 18.4473 3.64645 18.3536C3.55268 18.2598 3.5 18.1326 3.5 18L3.5 16L3.5 15.9993C3.49991 15.9339 3.51275 15.8691 3.53779 15.8087C3.56283 15.7482 3.59958 15.6934 3.64591 15.6472L3.64655 15.6466L5.35355 13.9396L5.5 13.7931V13.586V10C5.5 7.01527 7.52763 4.4982 10.2779 3.74002L10.5179 3.67386L10.6097 3.4425C10.8297 2.88847 11.3658 2.5 12 2.5C12.6342 2.5 13.1703 2.88847 13.3903 3.4425L13.4822 3.67395L13.7223 3.74006C16.4723 4.49724 18.5 7.01516 18.5 10V13.586ZM19 17.5H19.5V17V16.414V16.2069L19.3536 16.0604L17.6466 14.3534L17.6456 14.3525C17.5527 14.2601 17.5 14.1339 17.5 14V10C17.5 6.96686 15.0331 4.5 12 4.5C8.96686 4.5 6.5 6.96686 6.5 10L6.5 14L6.5 14.0007C6.5001 14.0661 6.48725 14.1309 6.46221 14.1913C6.43717 14.2518 6.40042 14.3066 6.35409 14.3528L6.35345 14.3534L4.64645 16.0604L4.5 16.2069V16.414V17V17.5H5H19ZM12.0006 21.5L11.9994 21.5C11.484 21.5006 10.9812 21.3407 10.5609 21.0424C10.3474 20.8909 10.1606 20.7076 10.0063 20.5H13.9937C13.8394 20.7076 13.6526 20.8909 13.4391 21.0424C13.0188 21.3407 12.516 21.5006 12.0006 21.5ZM6.92412 14.3828C6.9744 14.2614 7.00019 14.1313 7 14L5.5 17H5V16.5V16.414L6.707 14.707C6.80004 14.6143 6.87383 14.5041 6.92412 14.3828Z" stroke="black"/>
</svg>
