<svg width="32" height="32" viewBox="0 0 32 32" fill="none" xmlns="http://www.w3.org/2000/svg">
<path d="M16 22.666L17.3334 19.9993V13.1433C19.628 12.5473 21.3334 10.4767 21.3334 7.99935C21.3334 5.05802 18.9414 2.66602 16 2.66602C13.0587 2.66602 10.6667 5.05802 10.6667 7.99935C10.6667 10.4767 12.372 12.5473 14.6667 13.1433V19.9993L16 22.666ZM13.3334 7.99935C13.3334 6.52868 14.5294 5.33268 16 5.33268C17.4707 5.33268 18.6667 6.52868 18.6667 7.99935C18.6667 9.47002 17.4707 10.666 16 10.666C14.5294 10.666 13.3334 9.47002 13.3334 7.99935Z" fill="#006CBF"/>
<path d="M21.6894 14.0834L20.9787 16.654C24.4334 17.6087 26.6667 19.4447 26.6667 21.3327C26.6667 23.8554 22.2867 26.666 16 26.666C9.71335 26.666 5.33335 23.8554 5.33335 21.3327C5.33335 19.4447 7.56669 17.6087 11.0227 16.6527L10.312 14.082C5.59602 15.386 2.66669 18.1634 2.66669 21.3327C2.66669 25.818 8.52402 29.3327 16 29.3327C23.476 29.3327 29.3334 25.818 29.3334 21.3327C29.3334 18.1634 26.404 15.386 21.6894 14.0834Z" fill="#006CBF"/>
</svg>
