<svg width="24" height="24" viewBox="0 0 24 24" fill="none" xmlns="http://www.w3.org/2000/svg">
<path d="M15.71 15.7111L18 13.4111L20.29 15.7111L21.71 14.2911L19.41 12.0011L21.71 9.71106L20.29 8.29106L18 10.5911L15.71 8.29106L14.29 9.71106L16.58 12.0011L14.29 14.2911L15.71 15.7111ZM12 8.00106C12.0123 7.47241 11.9173 6.94675 11.7206 6.45588C11.524 5.96501 11.2298 5.51913 10.8558 5.14521C10.4819 4.7713 10.0361 4.47711 9.54518 4.28045C9.05431 4.08379 8.52865 3.98875 8 4.00106C7.47135 3.98875 6.94569 4.08379 6.45482 4.28045C5.96395 4.47711 5.51807 4.7713 5.14415 5.14521C4.77024 5.51913 4.47605 5.96501 4.27939 6.45588C4.08273 6.94675 3.98768 7.47241 4 8.00106C3.98768 8.52972 4.08273 9.05538 4.27939 9.54624C4.47605 10.0371 4.77024 10.483 5.14415 10.8569C5.51807 11.2308 5.96395 11.525 6.45482 11.7217C6.94569 11.9183 7.47135 12.0134 8 12.0011C8.52865 12.0134 9.05431 11.9183 9.54518 11.7217C10.0361 11.525 10.4819 11.2308 10.8558 10.8569C11.2298 10.483 11.524 10.0371 11.7206 9.54624C11.9173 9.05538 12.0123 8.52972 12 8.00106ZM6 8.00106C5.98714 7.73501 6.03007 7.46921 6.12602 7.22074C6.22198 6.97226 6.36885 6.7466 6.5572 6.55826C6.74554 6.36991 6.9712 6.22304 7.21968 6.12709C7.46815 6.03113 7.73395 5.9882 8 6.00106C8.26605 5.9882 8.53185 6.03113 8.78032 6.12709C9.0288 6.22304 9.25446 6.36991 9.4428 6.55826C9.63115 6.7466 9.77802 6.97226 9.87398 7.22074C9.96993 7.46921 10.0129 7.73501 10 8.00106C10.0129 8.26711 9.96993 8.53291 9.87398 8.78138C9.77802 9.02986 9.63115 9.25552 9.4428 9.44386C9.25446 9.63221 9.0288 9.77908 8.78032 9.87504C8.53185 9.971 8.26605 10.0139 8 10.0011C7.73395 10.0139 7.46815 9.971 7.21968 9.87504C6.9712 9.77908 6.74554 9.63221 6.5572 9.44386C6.36885 9.25552 6.22198 9.02986 6.12602 8.78138C6.03007 8.53291 5.98714 8.26711 6 8.00106ZM4 18.0011C4 17.2054 4.31607 16.4423 4.87868 15.8797C5.44129 15.3171 6.20435 15.0011 7 15.0011H9C9.79565 15.0011 10.5587 15.3171 11.1213 15.8797C11.6839 16.4423 12 17.2054 12 18.0011V19.0011H14V18.0011C14 17.3445 13.8707 16.6943 13.6194 16.0876C13.3681 15.481 12.9998 14.9298 12.5355 14.4655C12.0712 14.0012 11.52 13.6329 10.9134 13.3817C10.3068 13.1304 9.65661 13.0011 9 13.0011H7C5.67392 13.0011 4.40215 13.5278 3.46447 14.4655C2.52678 15.4032 2 16.675 2 18.0011V19.0011H4V18.0011Z" fill="#444444"/>
</svg>
