<svg width="31" height="30" viewBox="0 0 31 30" fill="none" xmlns="http://www.w3.org/2000/svg">
<path d="M9.25 13.75H11.75V16.25H9.25V13.75ZM9.25 18.75H11.75V21.25H9.25V18.75ZM14.25 13.75H16.75V16.25H14.25V13.75ZM14.25 18.75H16.75V21.25H14.25V18.75ZM19.25 13.75H21.75V16.25H19.25V13.75ZM19.25 18.75H21.75V21.25H19.25V18.75Z" fill="#444444"/>
<path d="M6.75 27.5H24.25C25.6287 27.5 26.75 26.3787 26.75 25V7.5C26.75 6.12125 25.6287 5 24.25 5H21.75V2.5H19.25V5H11.75V2.5H9.25V5H6.75C5.37125 5 4.25 6.12125 4.25 7.5V25C4.25 26.3787 5.37125 27.5 6.75 27.5ZM24.25 10L24.2512 25H6.75V10H24.25Z" fill="#444444"/>
</svg>
