<svg width="24" height="24" viewBox="0 0 24 24" fill="none" xmlns="http://www.w3.org/2000/svg">
<path d="M19.931 11.5H20.4988L20.427 10.9368C20.1886 9.06706 19.3361 7.32943 18.0034 5.99664C16.6706 4.66386 14.9329 3.81138 13.0632 3.57301L12.5 3.50121V4.069V11V11.5H13H19.931ZM11.5 4.069V3.50223L10.9377 3.5729C6.75282 4.09879 3.5 7.67172 3.5 12C3.5 16.6871 7.31286 20.5 12 20.5H12.0005C13.2324 20.4988 14.4492 20.2281 15.5655 19.7071L16.0774 19.4681L15.778 18.989L11.591 12.2899L11.5863 12.2779C11.5805 12.2629 11.5711 12.2402 11.5582 12.2144L11.5583 12.2144L11.5552 12.2084C11.5209 12.1421 11.502 12.0689 11.5 11.9943V4.069ZM16.628 18.461L16.9285 18.9419L17.368 18.5835C19.0592 17.2045 20.1546 15.2275 20.4271 13.0624L20.4979 12.5H19.931H13.805H12.903L13.381 13.265L16.628 18.461ZM2.5 12C2.5 6.76214 6.76214 2.5 12 2.5C17.2379 2.5 21.5 6.76214 21.5 12C21.5 17.2379 17.2379 21.5 12 21.5C6.76214 21.5 2.5 17.2379 2.5 12Z" stroke="#444444"/>
</svg>
