<svg width="24" height="24" viewBox="0 0 24 24" fill="none" xmlns="http://www.w3.org/2000/svg">
<g clip-path="url(#clip0_216_39427)">
<path d="M20.9912 22.7591C21.4794 23.2473 22.2708 23.2473 22.759 22.7591C23.2471 22.2709 23.2471 21.4795 22.759 20.9913L20.9912 22.7591ZM17.1398 10.2574C17.1398 14.0585 14.0584 17.1399 10.2573 17.1399V19.6399C15.4391 19.6399 19.6398 15.4392 19.6398 10.2574H17.1398ZM10.2573 17.1399C6.45625 17.1399 3.37488 14.0585 3.37488 10.2574H0.874878C0.874878 15.4392 5.07554 19.6399 10.2573 19.6399V17.1399ZM3.37488 10.2574C3.37488 6.45637 6.45625 3.375 10.2573 3.375V0.875C5.07554 0.875 0.874878 5.07566 0.874878 10.2574H3.37488ZM10.2573 3.375C14.0584 3.375 17.1398 6.45637 17.1398 10.2574H19.6398C19.6398 5.07566 15.4391 0.875 10.2573 0.875V3.375ZM15.1823 16.9502L20.9912 22.7591L22.759 20.9913L16.9501 15.1824L15.1823 16.9502Z" fill="white"/>
</g>
<defs>
<clipPath id="clip0_216_39427">
<rect width="24" height="24" fill="white"/>
</clipPath>
</defs>
</svg>
