<svg width="24" height="24" viewBox="0 0 24 24" fill="none" xmlns="http://www.w3.org/2000/svg">
<path d="M15.5 7V7.5H16H20C20.8269 7.5 21.5 8.17314 21.5 9V20C21.5 20.1326 21.4473 20.2598 21.3536 20.3536C21.2598 20.4473 21.1326 20.5 21 20.5H3C2.86739 20.5 2.74021 20.4473 2.64645 20.3536C2.55268 20.2598 2.5 20.1326 2.5 20V11C2.5 10.1731 3.17314 9.5 4 9.5H8H8.5V9V4C8.5 3.17314 9.17314 2.5 10 2.5H14C14.8269 2.5 15.5 3.17314 15.5 4V7ZM4 10.5H3.5V11V19V19.5H4H8H8.5V19V11V10.5H8H4ZM10 3.5H9.5V4V19V19.5H10H14H14.5V19V4V3.5H14H10ZM20 19.5H20.5V19V9V8.5H20H16H15.5V9V19V19.5H16H20Z" stroke="#444444"/>
</svg>
