<svg width="32" height="32" viewBox="0 0 32 32" fill="none" xmlns="http://www.w3.org/2000/svg">
<path d="M16.0001 18.666C18.9415 18.666 21.3335 16.274 21.3335 13.3327C21.3335 10.3913 18.9415 7.99935 16.0001 7.99935C13.0588 7.99935 10.6668 10.3913 10.6668 13.3327C10.6668 16.274 13.0588 18.666 16.0001 18.666ZM16.0001 10.666C17.4708 10.666 18.6668 11.862 18.6668 13.3327C18.6668 14.8033 17.4708 15.9993 16.0001 15.9993C14.5295 15.9993 13.3335 14.8033 13.3335 13.3327C13.3335 11.862 14.5295 10.666 16.0001 10.666Z" fill="#444444"/>
<path d="M15.2268 29.0847C15.4525 29.2458 15.7229 29.3325 16.0002 29.3325C16.2775 29.3325 16.5478 29.2458 16.7735 29.0847C17.1788 28.798 26.7055 21.9193 26.6668 13.3327C26.6668 7.45135 21.8815 2.66602 16.0002 2.66602C10.1188 2.66602 5.33349 7.45135 5.33349 13.326C5.29482 21.9193 14.8215 28.798 15.2268 29.0847ZM16.0002 5.33268C20.4122 5.33268 24.0002 8.92068 24.0002 13.3393C24.0282 19.2567 18.1495 24.57 16.0002 26.3127C13.8522 24.5687 7.97216 19.254 8.00016 13.3327C8.00016 8.92068 11.5882 5.33268 16.0002 5.33268Z" fill="#444444"/>
</svg>
