<svg width="24" height="24" viewBox="0 0 24 24" fill="none" xmlns="http://www.w3.org/2000/svg">
<path d="M16.9483 6.00428C15.8249 6.88401 14.2357 8.12841 13.6925 10.2845L12.9822 10.0929C12.9765 9.12901 12.9649 8.20643 12.9542 7.49649C12.9482 7.09484 12.9424 6.7611 12.9382 6.52624C12.9338 6.28457 12.9313 6.15913 12.9313 6.15916H12.9314L12.9312 6.1485C12.9257 5.88937 12.812 5.64964 12.6259 5.47846C12.4408 5.30822 12.1982 5.21772 11.9514 5.21774C11.9513 5.21774 11.9513 5.21774 11.9513 5.21774L11.9418 5.21774V5.21765L11.9325 5.21783C11.6826 5.22248 11.4387 5.3199 11.2562 5.49801C11.0729 5.67689 10.9665 5.92365 10.9715 6.18575C10.9715 6.18665 10.9716 6.19023 10.9717 6.1964C10.9755 6.38229 11.0262 8.91854 11.0262 11.28C11.0262 12.3448 10.8121 12.765 10.6273 12.9413C10.4453 13.1149 10.1737 13.1704 9.69522 13.1704H9.68307L9.67092 13.171C9.59356 13.1748 9.51714 13.1614 9.44824 13.1329C9.37953 13.1046 9.32181 13.0627 9.27813 13.0131C9.17929 12.9005 8.80838 12.3506 9.16888 10.6452C9.17604 10.6115 9.1829 10.5791 9.1895 10.548C9.33773 9.84951 9.34722 9.80478 9.39586 9.44871L9.39653 9.44401C9.44227 9.11978 9.53826 8.43936 9.89274 6.32001L9.89279 6.31971C10.117 4.97421 10.6763 4.07997 11.5005 3.56837L11.5007 3.5682C12.1965 3.13565 13.02 3.01269 13.7021 3.00869C14.3101 3.00512 14.7665 3.09589 14.8547 3.11466C15.0887 3.16997 15.3373 3.14033 15.5521 3.02869L15.5532 3.02811L18.2303 1.62802C18.5846 2.0861 18.7617 2.54186 18.7944 2.99529C18.8336 3.54047 18.6683 4.14499 18.2399 4.81675C17.8911 5.25214 17.4751 5.63806 17.0045 5.96151L16.9917 5.97032L16.9794 5.97992L16.9483 6.00428ZM15.3194 23.5C15.2879 22.9168 15.076 22.3525 14.7067 21.8797L14.6916 21.8604L14.6747 21.8427C14.4455 21.6019 14.1642 21.4141 13.8524 21.2907C13.5441 21.1686 13.2121 21.112 12.8796 21.124H12.7378C12.8351 20.9118 12.9112 20.6904 12.9646 20.4626C13.1574 19.7047 13.0558 18.9078 12.6812 18.2169C12.3062 17.5252 11.6849 16.9892 10.9359 16.6975L10.9359 16.6975L10.9304 16.6955C10.8134 16.6515 10.6893 16.6298 10.5649 16.6312C10.4404 16.6326 10.3168 16.6569 10.2007 16.7035C10.0846 16.7501 9.97747 16.8185 9.88614 16.9063C9.79475 16.994 9.72089 17.0996 9.67043 17.2178C9.61994 17.3361 9.59431 17.4637 9.59592 17.5931C9.59752 17.7225 9.6263 17.8494 9.67961 17.9664C9.73289 18.0832 9.80919 18.1869 9.90251 18.2725C9.99446 18.3568 10.1013 18.4221 10.2165 18.4661C10.5472 18.5984 10.808 18.8349 10.9583 19.1244C11.1087 19.414 11.1413 19.7417 11.0528 20.0494L11.0507 20.0567L11.0489 20.0641C10.987 20.3068 10.8699 20.5364 10.7033 20.737C10.5366 20.9377 10.3241 21.1048 10.0788 21.2251L10.0786 21.2252C9.88737 21.3191 9.72846 21.4738 9.63368 21.6707C9.53854 21.8682 9.51587 22.0927 9.57145 22.3061C9.62688 22.5189 9.75497 22.7017 9.92756 22.8292C10.0996 22.9563 10.3079 23.023 10.519 23.0235H10.5202H12.8868H12.9065L12.9261 23.022C12.9843 23.0174 13.0424 23.0252 13.0955 23.0442C13.1333 23.0577 13.1672 23.0764 13.1962 23.0985C13.2721 23.2243 13.3226 23.3597 13.3471 23.4986H6.29447L5.91152 22.8443C5.88549 22.7999 5.86246 22.756 5.84182 22.7125C5.64652 22.1942 5.60319 21.6375 5.71556 21.0993C5.82878 20.557 6.09674 20.0498 6.49516 19.6326C7.34164 18.788 9.20132 16.3769 9.29613 16.2521L9.3055 16.2398L9.31409 16.2269C9.55493 15.8657 9.74456 15.4761 9.87817 15.0684C10.8246 15.0378 11.6102 14.7638 12.1602 14.1407C12.6214 13.618 12.8623 12.9096 12.9474 12.0565L13.5084 12.2078C13.5885 14.2719 14.3376 16.7149 15.0721 18.6622C15.8398 20.6977 16.6161 22.2543 16.6833 22.3877L16.6833 22.3877C16.7588 22.5376 16.8722 22.6628 17.0092 22.7539C17.1461 22.845 17.3031 22.8998 17.465 22.9157L17.4847 22.9177L17.5046 22.918C17.6002 22.9198 17.693 22.942 17.7757 22.9817C17.8453 23.0151 17.9053 23.0597 17.9536 23.1117C18.0162 23.2356 18.0566 23.3666 18.0741 23.5H15.3194ZM2.53878 19.1378C2.53876 19.1378 2.53875 19.1378 2.53874 19.1379C2.53877 19.1378 2.5388 19.1378 2.53883 19.1378L2.53878 19.1378ZM14.896 11.4737C14.9225 11.4736 14.9506 11.4806 14.9771 11.4965C14.9781 11.4971 14.9789 11.4976 14.9798 11.4982C15.007 11.5152 15.0331 11.5423 15.0503 11.5799C15.0506 11.5806 15.0509 11.5813 15.0512 11.5819C15.0627 11.6081 15.0689 11.6369 15.0689 11.6662L14.9293 11.666L14.9234 11.666L14.9113 11.666L14.8963 11.666L14.8963 11.6505L14.8963 11.6372L14.8962 11.6319L14.896 11.4737ZM14.9287 11.6665H15.0689C15.0689 11.681 15.0674 11.6956 15.0644 11.71C15.0585 11.7379 15.0474 11.7625 15.0333 11.783C15.0254 11.7946 15.0165 11.8049 15.0071 11.8138C14.9811 11.8382 14.9517 11.8515 14.9242 11.8567C14.9151 11.8584 14.9059 11.8593 14.8966 11.8593L14.8963 11.7079L14.8963 11.7046L14.8963 11.696L14.8963 11.6895L14.8963 11.6746L14.8963 11.6665H14.9111H14.9238H14.9287ZM14.896 11.7059L14.8964 11.8593C14.8777 11.8593 14.8588 11.8559 14.8404 11.8487C14.8211 11.8413 14.8014 11.8293 14.7836 11.812C14.7756 11.8044 14.7681 11.7957 14.7611 11.7858C14.7482 11.7677 14.7379 11.7466 14.7314 11.7235C14.7263 11.7056 14.7235 11.6864 14.7235 11.6665H14.858H14.8602H14.8686H14.8746H14.8886H14.8959L14.8959 11.6745L14.8959 11.6898L14.896 11.6956L14.896 11.7056L14.896 11.7059ZM14.8958 11.6507L14.8959 11.666L14.8885 11.666L14.8749 11.6659L14.8681 11.6659L14.8615 11.6659L14.8552 11.6659L14.7235 11.6657C14.7236 11.6564 14.7242 11.6473 14.7253 11.6385C14.7297 11.6047 14.7421 11.5746 14.759 11.5499C14.7669 11.5384 14.7757 11.528 14.7853 11.5191C14.8066 11.499 14.8302 11.4864 14.8536 11.4797C14.8678 11.4756 14.8819 11.4737 14.8953 11.4737L14.8958 11.6326L14.8958 11.6367L14.8958 11.6507Z" stroke="#444444"/>
</svg>
