<svg width="33" height="32" viewBox="0 0 33 32" fill="none" xmlns="http://www.w3.org/2000/svg">
<path d="M25.8333 5.33268H23.1667V2.66602H20.5V5.33268H12.5V2.66602H9.83333V5.33268H7.16667C5.696 5.33268 4.5 6.52868 4.5 7.99935V26.666C4.5 28.1367 5.696 29.3327 7.16667 29.3327H25.8333C27.304 29.3327 28.5 28.1367 28.5 26.666V7.99935C28.5 6.52868 27.304 5.33268 25.8333 5.33268ZM25.836 26.666H7.16667V10.666H25.8333L25.836 26.666Z" fill="#444444"/>
<path d="M15.1667 23.2181L22.776 15.6087L20.8907 13.7234L15.1667 19.4474L12.1094 16.3901L10.224 18.2754L15.1667 23.2181Z" fill="#444444"/>
</svg>
