<svg width="32" height="32" viewBox="0 0 32 32" fill="none" xmlns="http://www.w3.org/2000/svg">
<path d="M16 6.12616C14.5472 4.7903 12.6456 4.04889 10.672 4.04883C9.6274 4.04992 8.59331 4.25757 7.62926 4.65985C6.66521 5.06213 5.79024 5.65109 5.05468 6.39283C1.91735 9.54349 1.91868 14.4715 5.05735 17.6088L14.8333 27.3848C15.06 27.7835 15.4973 28.0408 16 28.0408C16.2064 28.0388 16.4095 27.9884 16.5929 27.8937C16.7763 27.799 16.9349 27.6626 17.056 27.4955L26.9427 17.6088C30.0814 14.4702 30.0813 9.54349 26.94 6.38749C26.2048 5.64712 25.3306 5.05936 24.3674 4.65801C23.4043 4.25665 22.3714 4.04963 21.328 4.04883C19.3545 4.04915 17.453 4.79052 16 6.12616ZM25.0547 8.27283C27.1387 10.3675 27.14 13.6395 25.0573 15.7235L16 24.7808L6.94268 15.7235C4.86001 13.6395 4.86135 10.3675 6.94001 8.27816C7.95335 7.27016 9.27868 6.71549 10.672 6.71549C12.0653 6.71549 13.3853 7.27016 14.3907 8.27549L15.0573 8.94216C15.1811 9.06609 15.328 9.16441 15.4898 9.23149C15.6515 9.29857 15.8249 9.3331 16 9.3331C16.1751 9.3331 16.3485 9.29857 16.5103 9.23149C16.672 9.16441 16.819 9.06609 16.9427 8.94216L17.6093 8.27549C19.6253 6.26349 23.0413 6.26883 25.0547 8.27283Z" fill="#006CBF"/>
</svg>
