<svg width="25" height="25" viewBox="0 0 25 25" fill="none" xmlns="http://www.w3.org/2000/svg">
<path d="M7.01603 15.2678L5.52603 21.7198C5.47989 21.9152 5.49374 22.1199 5.56577 22.3073C5.6378 22.4947 5.76467 22.656 5.9298 22.7701C6.09492 22.8843 6.29064 22.946 6.49138 22.9472C6.69212 22.9484 6.88855 22.889 7.05503 22.7768L12.5 19.1468L17.945 22.7768C18.1154 22.8899 18.3162 22.9481 18.5207 22.9437C18.7251 22.9392 18.9232 22.8722 19.0884 22.7518C19.2536 22.6313 19.378 22.4631 19.4448 22.2699C19.5116 22.0767 19.5176 21.8676 19.462 21.6708L17.633 15.2708L22.169 11.1888C22.3143 11.058 22.4181 10.8875 22.4674 10.6983C22.5168 10.5092 22.5097 10.3097 22.4469 10.1246C22.3841 9.93943 22.2685 9.77675 22.1142 9.65665C21.96 9.53655 21.7739 9.4643 21.579 9.44883L15.878 8.99483L13.411 3.53383C13.3324 3.35798 13.2045 3.20866 13.0428 3.10389C12.8812 2.99911 12.6927 2.94336 12.5 2.94336C12.3074 2.94336 12.1189 2.99911 11.9572 3.10389C11.7956 3.20866 11.6677 3.35798 11.589 3.53383L9.12203 8.99483L3.42103 9.44783C3.22948 9.463 3.04636 9.53304 2.89358 9.64956C2.7408 9.76608 2.62482 9.92415 2.55952 10.1049C2.49422 10.2856 2.48236 10.4813 2.52537 10.6685C2.56838 10.8558 2.66443 11.0267 2.80203 11.1608L7.01603 15.2678ZM9.86903 10.9418C10.0475 10.9278 10.2189 10.8659 10.3653 10.7628C10.5117 10.6597 10.6277 10.5192 10.701 10.3558L12.5 6.37483L14.299 10.3558C14.3724 10.5192 14.4883 10.6597 14.6347 10.7628C14.7811 10.8659 14.9525 10.9278 15.131 10.9418L19.103 11.2568L15.832 14.2008C15.548 14.4568 15.435 14.8508 15.539 15.2188L16.792 19.6038L13.056 17.1128C12.892 17.0028 12.699 16.944 12.5015 16.944C12.304 16.944 12.111 17.0028 11.947 17.1128L8.04303 19.7158L9.09303 15.1698C9.13153 15.0026 9.12636 14.8283 9.07802 14.6637C9.02969 14.4991 8.93981 14.3497 8.81703 14.2298L5.77903 11.2678L9.86903 10.9418Z" fill="#444444"/>
</svg>
