<svg width="25" height="25" viewBox="0 0 25 25" fill="none" xmlns="http://www.w3.org/2000/svg">
<path d="M7.01603 14.8225L5.52603 21.2745C5.47989 21.4699 5.49374 21.6746 5.56577 21.862C5.6378 22.0494 5.76467 22.2107 5.9298 22.3248C6.09492 22.439 6.29064 22.5007 6.49138 22.5019C6.69212 22.5031 6.88855 22.4437 7.05503 22.3315L12.5 18.7015L17.945 22.3315C18.1154 22.4446 18.3162 22.5028 18.5207 22.4983C18.7251 22.4939 18.9232 22.4269 19.0884 22.3064C19.2536 22.186 19.378 22.0178 19.4448 21.8246C19.5116 21.6313 19.5176 21.4223 19.462 21.2255L17.633 14.8255L22.169 10.7435C22.3143 10.6127 22.4181 10.4422 22.4674 10.253C22.5168 10.0639 22.5097 9.8644 22.4469 9.67926C22.3841 9.49412 22.2685 9.33144 22.1142 9.21134C21.96 9.09124 21.7739 9.01899 21.579 9.00351L15.878 8.54951L13.411 3.08851C13.3324 2.91267 13.2045 2.76335 13.0428 2.65857C12.8812 2.5538 12.6927 2.49805 12.5 2.49805C12.3074 2.49805 12.1189 2.5538 11.9572 2.65857C11.7956 2.76335 11.6677 2.91267 11.589 3.08851L9.12203 8.54951L3.42103 9.00251C3.22948 9.01769 3.04636 9.08772 2.89358 9.20425C2.7408 9.32077 2.62482 9.47884 2.55952 9.65954C2.49422 9.84025 2.48236 10.0359 2.52537 10.2232C2.56838 10.4105 2.66443 10.5814 2.80203 10.7155L7.01603 14.8225ZM9.86903 10.4965C10.0475 10.4825 10.2189 10.4206 10.3653 10.3175C10.5117 10.2144 10.6277 10.0738 10.701 9.91051L12.5 5.92951L14.299 9.91051C14.3724 10.0738 14.4883 10.2144 14.6347 10.3175C14.7811 10.4206 14.9525 10.4825 15.131 10.4965L19.103 10.8115L15.832 13.7555C15.548 14.0115 15.435 14.4055 15.539 14.7735L16.792 19.1585L13.056 16.6675C12.892 16.5575 12.699 16.4987 12.5015 16.4987C12.304 16.4987 12.111 16.5575 11.947 16.6675L8.04303 19.2705L9.09303 14.7245C9.13153 14.5573 9.12636 14.383 9.07802 14.2184C9.02969 14.0538 8.93981 13.9044 8.81703 13.7845L5.77903 10.8225L9.86903 10.4965Z" fill="#444444"/>
</svg>
