<svg width="32" height="32" viewBox="0 0 32 32" fill="none" xmlns="http://www.w3.org/2000/svg">
<path d="M19.6 18.0008C18.1333 15.3341 17.6787 14.6674 16 14.6674C14.3213 14.6674 13.6853 15.6741 12.2187 18.3301C10.9627 20.6008 8.42401 20.7901 7.79068 22.7181C7.66134 23.0714 7.59734 23.6208 7.60001 24.0008C7.60001 25.5688 8.64934 26.6674 10 26.6674C11.6787 26.6674 14 25.3341 16 25.3341C18 25.3341 20.3213 26.6674 22 26.6674C23.3507 26.6674 24.4 25.5701 24.4 24.0008C24.4 23.6208 24.3347 23.0714 24.2053 22.7181C23.572 20.7834 20.856 20.2714 19.6 18.0008ZM26.9173 10.7768C26.7465 10.7029 26.5621 10.6657 26.376 10.6674H26.356C25.376 10.6834 24.276 11.6674 23.6987 13.1554C23.0067 14.9354 23.3253 16.7554 24.416 17.2248C24.5902 17.2977 24.7707 17.3341 24.9573 17.3341C25.9427 17.3341 27.0573 16.3448 27.6387 14.8461C28.3267 13.0661 28.0013 11.2461 26.9173 10.7768ZM12.632 12.0008C12.7053 12.0008 12.7773 12.0008 12.8493 11.9861C14.108 11.8154 14.8933 10.1914 14.6093 8.35677C14.3387 6.62744 13.2133 5.33411 12.0333 5.33411C11.96 5.33411 11.888 5.33411 11.816 5.34877C10.5573 5.51944 9.77201 7.14344 10.056 8.97811C10.328 10.7021 11.4533 12.0008 12.6333 12.0008H12.632ZM21.9413 8.97811C22.2267 7.14344 21.4413 5.51944 20.1813 5.34877C20.1099 5.33804 20.0376 5.33313 19.9653 5.33411C18.7853 5.33411 17.6613 6.62744 17.392 8.35677C17.1067 10.1914 17.892 11.8154 19.152 11.9861C19.224 11.995 19.296 11.9999 19.368 12.0008C20.548 12.0008 21.6747 10.7021 21.9413 8.97811ZM7.58668 17.2248C8.67468 16.7554 8.99201 14.9328 8.30134 13.1554C7.72001 11.6568 6.60668 10.6674 5.62268 10.6674C5.43512 10.6674 5.25423 10.7039 5.08001 10.7768C3.99201 11.2461 3.67468 13.0688 4.36534 14.8461C4.94668 16.3448 6.06001 17.3341 7.04401 17.3341C7.23156 17.3341 7.41245 17.2977 7.58668 17.2248Z" stroke="#444444" stroke-width="2" stroke-linecap="round" stroke-linejoin="round"/>
</svg>
