<svg width="11" height="12" viewBox="0 0 11 12" fill="none" xmlns="http://www.w3.org/2000/svg">
<path d="M10.3995 10.7725L10.0459 11.1261C9.85068 11.3213 9.53411 11.3213 9.33881 11.1261L5.27298 7.06019L1.20708 11.126C1.01186 11.3213 0.695267 11.3213 0.500004 11.126L0.146447 10.7725C-0.0488156 10.5772 -0.0488156 10.2607 0.146447 10.0654L4.21233 5.99954L0.146447 1.93364C-0.0488156 1.73842 -0.0488156 1.42183 0.146447 1.22657L0.499996 0.873017C0.695259 0.677754 1.01186 0.677754 1.20708 0.873017L5.27298 4.93889L9.33881 0.873009C9.53411 0.677747 9.85068 0.677747 10.0459 0.873009L10.3995 1.22656C10.5948 1.42182 10.5948 1.73842 10.3995 1.93364L6.33363 5.99954L10.3995 10.0654C10.5948 10.2607 10.5948 10.5772 10.3995 10.7725Z" fill="black"/>
</svg>
